<?xml version="1.0" standalone="no"?>
<!DOCTYPE svg PUBLIC "-//W3C//DTD SVG 20010904//EN"
 "http://www.w3.org/TR/2001/REC-SVG-20010904/DTD/svg10.dtd">
<svg version="1.0" xmlns="http://www.w3.org/2000/svg"
 width="460.000000pt" height="460.000000pt" viewBox="0 0 460.000000 460.000000"
 preserveAspectRatio="xMidYMid meet">

<g transform="translate(0.000000,460.000000) scale(0.100000,-0.100000)"
fill="#000000" stroke="none">
<path d="M3466 4427 c-113 -117 -185 -293 -246 -599 -58 -290 -77 -359 -133
-482 l-31 -68 -42 6 c-23 3 -113 8 -200 12 -172 7 -324 -3 -574 -37 l-154 -21
-23 28 c-33 42 -102 185 -182 382 -129 315 -197 431 -330 563 -93 93 -175 145
-293 186 -120 42 -144 19 -104 -99 35 -102 56 -243 56 -378 0 -127 -10 -179
-71 -374 -94 -298 -109 -438 -63 -568 34 -94 59 -143 155 -309 117 -199 124
-223 123 -399 l0 -145 -60 -111 -59 -111 -45 19 c-158 67 -360 83 -515 39
-285 -80 -499 -296 -571 -576 -25 -95 -25 -295 0 -385 25 -94 97 -235 156
-307 100 -123 262 -227 420 -269 90 -25 300 -25 390 0 98 26 237 98 312 160
70 58 160 169 198 245 l22 44 76 -7 c68 -6 385 -71 404 -82 12 -8 125 -227
138 -269 20 -61 60 -114 101 -136 55 -28 154 -49 230 -49 57 0 79 6 153 40 47
23 119 48 159 57 72 15 73 15 157 -12 60 -19 114 -29 185 -32 94 -5 104 -4
152 20 67 34 195 132 262 200 44 46 54 62 58 99 5 39 -14 110 -51 198 -5 12
18 35 84 84 78 60 92 75 107 117 17 47 19 49 58 50 576 13 566 13 585 37 51
62 45 213 -10 275 l-28 31 -222 -18 c-121 -10 -224 -16 -227 -13 -2 3 1 32 8
64 19 89 14 254 -10 348 -30 114 -77 201 -187 348 l-97 129 11 93 c19 147 15
255 -9 320 l-20 55 70 112 c185 298 188 358 36 663 -127 256 -144 317 -184
672 -18 159 -34 213 -63 213 -7 0 -35 -24 -62 -53z m-2030 -373 c72 -128 109
-245 173 -539 39 -179 41 -201 43 -366 0 -99 -3 -183 -9 -193 -8 -15 -13 -13
-37 18 -29 38 -76 133 -76 154 0 30 -21 7 -35 -40 -21 -70 -19 -103 10 -172
13 -33 23 -61 21 -63 -7 -8 -89 61 -116 98 -77 107 -98 248 -81 549 6 113 16
239 22 280 11 74 7 331 -6 380 -6 23 -4 22 25 -10 17 -19 47 -63 66 -96z
m2135 -303 c12 -36 50 -122 84 -191 88 -179 115 -250 115 -307 -1 -62 -34
-144 -95 -228 l-47 -67 -29 34 c-48 55 -49 72 -9 183 35 97 31 183 -18 351
-47 164 -62 260 -61 387 l1 92 19 -94 c10 -51 28 -123 40 -160z m-458 -1043
c31 -12 34 -32 13 -83 -17 -41 -48 -60 -74 -46 -26 14 -67 94 -59 115 13 34
55 39 120 14z m-429 -19 c33 -26 35 -75 5 -113 -32 -41 -66 -32 -106 28 -18
26 -33 52 -33 57 0 4 10 17 22 29 28 26 78 26 112 -1z m863 -154 c45 -32 50
-138 8 -201 -28 -44 -212 -86 -279 -64 -47 15 -51 24 -26 60 l21 30 37 -25
c62 -42 144 -29 191 31 26 33 29 118 6 151 -12 16 -12 22 -2 26 19 8 21 8 44
-8z m-1404 -24 c5 -5 4 -18 -2 -29 -17 -33 -13 -109 9 -151 48 -95 186 -116
262 -40 16 16 33 29 36 29 4 0 18 -16 31 -36 21 -30 22 -37 10 -45 -31 -20
-116 -39 -174 -39 -195 0 -304 122 -269 300 7 31 8 32 48 26 23 -4 45 -11 49
-15z m1331 3 c31 -30 8 -69 -36 -62 -30 4 -38 46 -12 65 23 17 29 16 48 -3z
m-1244 -30 c41 -17 49 -31 28 -52 -34 -34 -97 2 -83 48 8 24 5 24 55 4z m1120
-59 c0 -8 -9 -19 -20 -25 -15 -8 -20 -8 -20 3 0 14 19 37 32 37 4 0 8 -7 8
-15z m-950 -69 c-15 -15 -44 5 -48 34 l-4 23 32 -23 c23 -16 29 -25 20 -34z
m-473 -310 c72 -33 129 -64 127 -67 -2 -4 -35 -10 -74 -14 -77 -8 -90 -19 -33
-30 78 -14 271 -78 351 -115 141 -66 195 -105 258 -183 32 -39 94 -110 138
-157 140 -150 187 -242 151 -297 -18 -26 -64 -70 -93 -87 -12 -7 -12 -4 1 15
27 38 20 40 -30 11 -180 -105 -287 -102 -411 11 -25 23 -58 62 -74 86 -34 54
-36 109 -12 267 15 96 15 108 0 147 -9 23 -26 55 -38 70 l-23 28 0 -78 c0 -60
-6 -91 -24 -135 -14 -32 -28 -58 -31 -58 -3 0 -17 19 -30 43 -53 95 -127 196
-191 259 l-67 67 31 11 32 12 -33 14 c-49 22 -143 29 -186 14 -56 -18 -106
-68 -136 -132 l-26 -58 -73 74 -74 74 17 52 c30 92 58 125 140 165 75 37 217
69 261 58 11 -3 79 -33 152 -67z m1834 14 c27 -18 57 -46 65 -62 31 -59 55
-184 61 -309 6 -124 6 -126 -18 -142 -13 -10 -31 -17 -40 -17 -25 0 -65 52
-84 111 l-18 52 -18 -24 c-30 -38 -52 -126 -46 -178 3 -25 20 -91 37 -145 36
-118 33 -151 -19 -209 -87 -97 -223 -109 -383 -35 -79 36 -128 85 -128 127 0
38 69 131 144 195 69 59 149 162 172 222 13 35 15 53 7 87 -7 34 -5 59 14 129
12 48 29 104 38 124 8 20 14 39 12 41 -2 2 -21 -4 -43 -13 l-39 -15 30 25 c17
14 53 37 80 51 63 33 106 29 176 -15z m-2749 -251 c121 -26 263 -112 345 -211
318 -382 89 -966 -402 -1027 -316 -39 -609 160 -690 469 -22 84 -22 226 0 309
57 220 235 398 455 455 67 18 219 20 292 5z m776 -88 c73 -37 169 -157 266
-332 27 -50 38 -83 43 -131 l6 -65 -39 -6 c-22 -4 -49 -7 -62 -7 -19 0 -21 3
-12 19 5 11 10 30 10 42 0 20 4 21 40 16 l40 -5 -76 71 c-91 86 -99 90 -200
118 -44 11 -94 29 -112 40 -18 10 -35 19 -38 19 -13 0 30 -61 65 -93 23 -20
41 -39 41 -42 0 -3 -24 -5 -53 -5 l-52 0 -34 99 -33 99 31 59 c38 71 85 123
112 123 11 0 37 -9 57 -19z m-10 -568 c-21 -2 -55 -2 -75 0 -21 2 -4 4 37 4
41 0 58 -2 38 -4z m58 -108 c27 -8 63 -26 79 -40 l30 -26 -65 5 c-36 3 -102 9
-148 12 -67 5 -82 10 -78 21 3 8 6 21 6 29 0 19 110 19 176 -1z m1489 -166
c39 -11 102 -27 140 -36 39 -10 73 -22 77 -28 4 -5 8 -38 8 -71 l0 -62 -50
-32 c-66 -43 -155 -69 -265 -79 -49 -5 -92 -7 -94 -6 -1 2 9 20 24 39 32 42
35 42 -95 25 -92 -12 -163 -2 -173 25 -10 26 20 37 129 46 85 6 111 12 121 26
7 10 13 21 13 25 0 5 21 9 48 11 l47 4 -40 19 c-32 16 -61 20 -145 20 -93 0
-112 -3 -161 -26 -32 -15 -83 -53 -117 -86 -33 -32 -88 -74 -122 -92 -57 -31
-68 -33 -121 -27 l-59 6 16 -25 16 -25 -40 14 c-98 35 -125 61 -161 157 -12
30 -21 56 -21 59 0 3 18 4 41 2 37 -4 39 -5 24 -22 -15 -16 -12 -17 38 -23 70
-7 188 7 257 31 30 11 111 47 179 82 101 50 137 63 190 69 98 9 217 1 296 -20z"/>
</g>
</svg>
