<?xml version="1.0" encoding="UTF-8"?>
<!DOCTYPE svg PUBLIC "-//W3C//DTD SVG 1.1//EN" "http://www.w3.org/Graphics/SVG/1.1/DTD/svg11.dtd">
<svg xmlns="http://www.w3.org/2000/svg" version="1.1" width="224px" height="224px" style="shape-rendering:geometricPrecision; text-rendering:geometricPrecision; image-rendering:optimizeQuality; fill-rule:evenodd; clip-rule:evenodd" xmlns:xlink="http://www.w3.org/1999/xlink">
<g><path style="opacity:1" fill="#fcfcfc" d="M -0.5,-0.5 C 74.1667,-0.5 148.833,-0.5 223.5,-0.5C 223.5,74.1667 223.5,148.833 223.5,223.5C 148.833,223.5 74.1667,223.5 -0.5,223.5C -0.5,148.833 -0.5,74.1667 -0.5,-0.5 Z"/></g>
<g><path style="opacity:1" fill="#7d7c7c" d="M 102.5,2.5 C 108.5,2.5 114.5,2.5 120.5,2.5C 120.5,23.8333 120.5,45.1667 120.5,66.5C 114.5,66.5 108.5,66.5 102.5,66.5C 102.5,45.1667 102.5,23.8333 102.5,2.5 Z"/></g>
<g><path style="opacity:1" fill="#282525" d="M 103.5,3.5 C 108.833,3.5 114.167,3.5 119.5,3.5C 119.5,24.1667 119.5,44.8333 119.5,65.5C 114.167,65.5 108.833,65.5 103.5,65.5C 103.5,44.8333 103.5,24.1667 103.5,3.5 Z"/></g>
<g><path style="opacity:1" fill="#2a2727" d="M 36.5,127.5 C 36.2938,130.495 36.9605,133.162 38.5,135.5C 44.6385,158.147 58.3052,174.647 79.5,185C 85.6221,187.613 91.9554,189.447 98.5,190.5C 106.99,191.657 115.657,191.824 124.5,191C 126.058,190.79 127.391,190.29 128.5,189.5C 157.772,182.399 176.938,164.399 186,135.5C 192.312,93.358 175.979,64.0247 137,47.5C 136.5,38.5062 136.334,29.5062 136.5,20.5C 178.177,31.507 203.844,57.8403 213.5,99.5C 214.232,108.815 214.566,118.148 214.5,127.5C 206.183,176.655 177.516,206.488 128.5,217C 73.6919,222.358 35.5252,199.858 14,149.5C 12.2025,144.977 11.0359,140.31 10.5,135.5C 9.70387,125.521 9.37053,115.521 9.5,105.5C 17.2656,60.7235 43.2656,32.3901 87.5,20.5C 87.6664,29.5062 87.4998,38.5062 87,47.5C 51.1847,62.1211 34.3514,88.7877 36.5,127.5 Z"/></g>
<g><path style="opacity:1" fill="#594e4f" d="M 148.5,62.5 C 147.696,60.8113 146.696,59.1446 145.5,57.5C 144.828,58.9492 144.161,60.2825 143.5,61.5C 143.144,58.4359 143.977,55.7693 146,53.5C 147.908,56.2065 148.741,59.2065 148.5,62.5 Z"/></g>
<g><path style="opacity:1" fill="#c82e3f" d="M 148.5,62.5 C 150.523,71.9035 153.523,80.9035 157.5,89.5C 158.423,95.2679 159.756,100.935 161.5,106.5C 167.176,106.334 172.843,106.501 178.5,107C 175.797,110.038 172.797,112.705 169.5,115C 165.789,115.825 162.122,115.659 158.5,114.5C 155.812,108.731 153.145,103.064 150.5,97.5C 150.88,95.302 150.213,93.6354 148.5,92.5C 148.365,89.2255 147.365,86.2255 145.5,83.5C 143.946,85.9329 143.28,88.5995 143.5,91.5C 140.404,98.6052 137.57,105.939 135,113.5C 132.45,120.65 130.617,127.983 129.5,135.5C 123.229,149.312 118.563,163.645 115.5,178.5C 115.5,178.833 115.5,179.167 115.5,179.5C 114.696,181.189 113.696,182.855 112.5,184.5C 109.597,175.443 105.931,166.777 101.5,158.5C 101.5,158.167 101.5,157.833 101.5,157.5C 98.3848,144.475 93.7181,132.142 87.5,120.5C 87.5,120.167 87.5,119.833 87.5,119.5C 87.3259,117.139 86.9926,114.806 86.5,112.5C 77.8577,111.701 69.1911,111.368 60.5,111.5C 59.4154,109.413 57.7488,108.08 55.5,107.5C 54.1879,105.521 52.5212,103.855 50.5,102.5C 52.7427,101.526 55.076,101.192 57.5,101.5C 70.0964,101.396 82.4297,102.396 94.5,104.5C 94.3398,106.199 94.5065,107.866 95,109.5C 97.2854,114.227 99.452,118.893 101.5,123.5C 101.5,123.833 101.5,124.167 101.5,124.5C 103.257,131.11 105.59,137.443 108.5,143.5C 108.769,147.474 109.936,151.14 112,154.5C 114.055,151.112 115.222,147.446 115.5,143.5C 118.803,137.598 121.136,131.264 122.5,124.5C 122.5,124.167 122.5,123.833 122.5,123.5C 124.283,118.842 126.283,114.176 128.5,109.5C 129.156,107.547 129.489,105.547 129.5,103.5C 129.5,103.167 129.5,102.833 129.5,102.5C 133.131,95.6134 135.798,88.2801 137.5,80.5C 137.5,80.1667 137.5,79.8333 137.5,79.5C 140.076,73.773 142.076,67.773 143.5,61.5C 144.161,60.2825 144.828,58.9492 145.5,57.5C 146.696,59.1446 147.696,60.8113 148.5,62.5 Z"/></g>
<g><path style="opacity:1" fill="#4e3d3e" d="M 143.5,61.5 C 142.076,67.773 140.076,73.773 137.5,79.5C 138.678,73.7922 140.178,68.1255 142,62.5C 142.383,61.944 142.883,61.6107 143.5,61.5 Z"/></g>
<g><path style="opacity:1" fill="#52393a" d="M 148.5,62.5 C 152.471,71.0794 155.471,80.0794 157.5,89.5C 153.523,80.9035 150.523,71.9035 148.5,62.5 Z"/></g>
<g><path style="opacity:1" fill="#472f30" d="M 148.5,92.5 C 147.325,91.0262 146.325,89.3596 145.5,87.5C 144.828,88.9492 144.161,90.2825 143.5,91.5C 143.28,88.5995 143.946,85.9329 145.5,83.5C 147.365,86.2255 148.365,89.2255 148.5,92.5 Z"/></g>
<g><path style="opacity:1" fill="#554041" d="M 137.5,80.5 C 135.798,88.2801 133.131,95.6134 129.5,102.5C 130.822,96.0333 132.655,89.7 135,83.5C 135.377,82.0577 136.21,81.0577 137.5,80.5 Z"/></g>
<g><path style="opacity:1" fill="#4e2a2c" d="M 148.5,92.5 C 150.213,93.6354 150.88,95.302 150.5,97.5C 149.463,96.0697 148.796,94.403 148.5,92.5 Z"/></g>
<g><path style="opacity:1" fill="#272020" d="M 57.5,100.5 C 57.5,100.833 57.5,101.167 57.5,101.5C 55.076,101.192 52.7427,101.526 50.5,102.5C 52.5212,103.855 54.1879,105.521 55.5,107.5C 43.0223,101.359 43.6889,99.0259 57.5,100.5 Z"/></g>
<g><path style="opacity:1" fill="#585555" d="M 57.5,101.5 C 57.5,101.167 57.5,100.833 57.5,100.5C 69.8536,100.323 82.1869,100.656 94.5,101.5C 94.5,102.5 94.5,103.5 94.5,104.5C 82.4297,102.396 70.0964,101.396 57.5,101.5 Z"/></g>
<g><path style="opacity:1" fill="#9e9d9d" d="M 163.5,104.5 C 169.868,104.17 176.202,104.504 182.5,105.5C 182.376,106.107 182.043,106.44 181.5,106.5C 175.5,105.833 169.5,105.167 163.5,104.5 Z"/></g>
<g><path style="opacity:1" fill="#5a4343" d="M 94.5,104.5 C 97.8031,110.402 100.136,116.736 101.5,123.5C 99.452,118.893 97.2854,114.227 95,109.5C 94.5065,107.866 94.3398,106.199 94.5,104.5 Z"/></g>
<g><path style="opacity:1" fill="#534445" d="M 55.5,107.5 C 57.7488,108.08 59.4154,109.413 60.5,111.5C 58.2054,110.864 56.5387,109.531 55.5,107.5 Z"/></g>
<g><path style="opacity:1" fill="#5c4848" d="M 129.5,103.5 C 129.489,105.547 129.156,107.547 128.5,109.5C 126.283,114.176 124.283,118.842 122.5,123.5C 123.624,116.295 125.958,109.628 129.5,103.5 Z"/></g>
<g><path style="opacity:1" fill="#584645" d="M 60.5,111.5 C 69.1911,111.368 77.8577,111.701 86.5,112.5C 86.9926,114.806 87.3259,117.139 87.5,119.5C 86.2291,117.891 85.2291,116.058 84.5,114C 76.8333,113.667 69.1667,113.333 61.5,113C 60.944,112.617 60.6107,112.117 60.5,111.5 Z"/></g>
<g><path style="opacity:1" fill="#bfbebe" d="M 213.5,99.5 C 214.984,104.925 215.651,110.591 215.5,116.5C 215.499,120.349 215.165,124.016 214.5,127.5C 214.566,118.148 214.232,108.815 213.5,99.5 Z"/></g>
<g><path style="opacity:1" fill="#583b3c" d="M 157.5,89.5 C 159.481,94.4291 161.481,99.4291 163.5,104.5C 169.5,105.167 175.5,105.833 181.5,106.5C 177.853,109.811 174.187,113.145 170.5,116.5C 165.88,117.493 161.214,117.827 156.5,117.5C 154.5,110.833 152.5,104.167 150.5,97.5C 153.145,103.064 155.812,108.731 158.5,114.5C 162.122,115.659 165.789,115.825 169.5,115C 172.797,112.705 175.797,110.038 178.5,107C 172.843,106.501 167.176,106.334 161.5,106.5C 159.756,100.935 158.423,95.2679 157.5,89.5 Z"/></g>
<g><path style="opacity:1" fill="#abaaaa" d="M 9.5,105.5 C 9.37053,115.521 9.70387,125.521 10.5,135.5C 8.99986,129.74 8.33319,123.74 8.5,117.5C 8.5011,113.319 8.83443,109.319 9.5,105.5 Z"/></g>
<g><path style="opacity:1" fill="#533535" d="M 143.5,91.5 C 139.177,106.408 134.51,121.075 129.5,135.5C 130.617,127.983 132.45,120.65 135,113.5C 137.57,105.939 140.404,98.6052 143.5,91.5 Z"/></g>
<g><path style="opacity:1" fill="#5b4848" d="M 101.5,124.5 C 105.585,130.08 107.919,136.413 108.5,143.5C 105.59,137.443 103.257,131.11 101.5,124.5 Z"/></g>
<g><path style="opacity:1" fill="#949393" d="M 36.5,127.5 C 37.7682,129.905 38.4349,132.572 38.5,135.5C 36.9605,133.162 36.2938,130.495 36.5,127.5 Z"/></g>
<g><path style="opacity:1" fill="#563a3a" d="M 122.5,124.5 C 121.136,131.264 118.803,137.598 115.5,143.5C 116.47,136.581 118.804,130.248 122.5,124.5 Z"/></g>
<g><path style="opacity:1" fill="#5d3d3e" d="M 87.5,120.5 C 93.7181,132.142 98.3848,144.475 101.5,157.5C 99.6971,153.894 97.8637,150.227 96,146.5C 93.4534,137.694 90.62,129.028 87.5,120.5 Z"/></g>
<g><path style="opacity:1" fill="#513a3a" d="M 108.5,143.5 C 109.802,145.672 110.968,148.006 112,150.5C 112.86,147.916 114.027,145.583 115.5,143.5C 115.222,147.446 114.055,151.112 112,154.5C 109.936,151.14 108.769,147.474 108.5,143.5 Z"/></g>
<g><path style="opacity:1" fill="#5c4546" d="M 101.5,158.5 C 105.931,166.777 109.597,175.443 112.5,184.5C 113.696,182.855 114.696,181.189 115.5,179.5C 115.435,182.428 114.768,185.095 113.5,187.5C 112.833,187.833 112.167,188.167 111.5,188.5C 108.367,178.436 105.034,168.436 101.5,158.5 Z"/></g>
<g><path style="opacity:1" fill="#604a4b" d="M 129.5,135.5 C 127.151,143.39 124.985,151.39 123,159.5C 120.938,166.16 118.438,172.493 115.5,178.5C 118.563,163.645 123.229,149.312 129.5,135.5 Z"/></g>
<g><path style="opacity:1" fill="#bbbaba" d="M 113.5,187.5 C 113.5,188.5 113.5,189.5 113.5,190.5C 118.527,190.497 123.527,190.164 128.5,189.5C 127.391,190.29 126.058,190.79 124.5,191C 115.657,191.824 106.99,191.657 98.5,190.5C 103.294,191.097 107.627,190.43 111.5,188.5C 112.167,188.167 112.833,187.833 113.5,187.5 Z"/></g>
</svg>
