<?xml version="1.0" standalone="no"?>
<!DOCTYPE svg PUBLIC "-//W3C//DTD SVG 20010904//EN"
 "http://www.w3.org/TR/2001/REC-SVG-20010904/DTD/svg10.dtd">
<svg version="1.0" xmlns="http://www.w3.org/2000/svg"
 width="224.000000pt" height="224.000000pt" viewBox="0 0 224.000000 224.000000"
 preserveAspectRatio="xMidYMid meet">

<g transform="translate(0.000000,224.000000) scale(0.100000,-0.100000)"
fill="#000000" stroke="none">
<path d="M1030 1890 l0 -311 88 3 87 3 3 308 2 307 -90 0 -90 0 0 -310z"/>
<path d="M740 1987 c-305 -123 -531 -374 -617 -687 -26 -93 -26 -399 0 -485
26 -86 75 -204 102 -245 13 -19 34 -54 49 -77 39 -63 142 -170 223 -229 185
-137 397 -207 628 -207 290 0 567 118 758 324 187 201 276 444 264 719 -7 156
-25 235 -77 351 -117 261 -328 455 -593 548 -49 17 -90 31 -93 31 -2 0 -4 -62
-3 -137 l0 -138 101 -49 c168 -83 294 -227 363 -416 22 -61 28 -97 32 -195 6
-154 -11 -239 -73 -362 -99 -197 -278 -337 -504 -394 -163 -41 -391 -14 -529
63 -169 95 -290 228 -354 388 -38 96 -48 151 -48 266 0 126 20 214 71 319 80
166 224 298 399 369 l36 14 -3 136 c-2 97 -6 136 -15 136 -7 -1 -59 -20 -117
-43z"/>
<path d="M1452 1673 c-6 -16 -45 -129 -86 -253 -42 -124 -103 -304 -136 -400
-34 -96 -68 -197 -75 -224 -18 -64 -30 -75 -43 -39 -75 212 -108 302 -135 373
l-33 85 -189 8 c-105 4 -212 6 -238 5 l-49 -3 69 -55 68 -55 123 -10 124 -10
33 -90 c18 -49 59 -160 90 -245 31 -85 74 -201 95 -256 22 -56 42 -114 46
-128 3 -14 9 -26 13 -26 3 0 26 62 50 138 55 173 121 379 176 552 24 74 56
174 71 223 16 48 31 87 34 87 4 0 20 -33 35 -72 16 -40 42 -106 58 -146 l29
-73 62 7 c33 4 71 15 83 24 39 31 93 79 93 84 0 3 -41 7 -92 8 l-92 3 -13 35
c-6 19 -44 135 -83 258 -39 122 -73 222 -74 222 -2 0 -8 -12 -14 -27z"/>
</g>
</svg>
